<svg width="20" height="20" viewBox="0 0 20 20" fill="none" xmlns="http://www.w3.org/2000/svg">
<circle cx="10" cy="10" r="6" fill="white"/>
<mask id="mask0_963_1675" style="mask-type:alpha" maskUnits="userSpaceOnUse" x="0" y="0" width="20" height="20">
<rect width="20" height="20" fill="#D9D9D9"/>
</mask>
<g mask="url(#mask0_963_1675)">
<path d="M7.16536 18.75L5.58203 16.0833L2.58203 15.4167L2.8737 12.3333L0.832031 10L2.8737 7.66667L2.58203 4.58333L5.58203 3.91667L7.16536 1.25L9.9987 2.45833L12.832 1.25L14.4154 3.91667L17.4154 4.58333L17.1237 7.66667L19.1654 10L17.1237 12.3333L17.4154 15.4167L14.4154 16.0833L12.832 18.75L9.9987 17.5417L7.16536 18.75ZM9.1237 12.9583L13.832 8.25L12.6654 7.04167L9.1237 10.5833L7.33203 8.83333L6.16536 10L9.1237 12.9583Z" fill="#0B97F6"/>
</g>
</svg>
